<svg width="1210" height="263" viewBox="0 0 1210 263" fill="none" xmlns="http://www.w3.org/2000/svg">
<rect width="142" height="35" transform="matrix(-1 0 0 1 1208.92 183.15)" fill="#0049AB"/>
<rect width="160" height="35" transform="matrix(-1 0 0 1 1209.92 227.15)" fill="#006DFF"/>
<rect width="181.127" height="30.3956" transform="matrix(-0.538035 -0.842923 -0.842923 0.538035 1092.93 201.783)" fill="#0049AB"/>
<rect width="181.127" height="30.3956" transform="matrix(-0.543456 -0.839437 -0.839437 0.543456 1075.36 245.428)" fill="#006DFF"/>
<rect width="888" height="35" transform="matrix(-1 0 0 1 995.923 49.1499)" fill="#0049AB"/>
<rect width="886" height="35" transform="matrix(-1 0 0 1 976.923 93.1499)" fill="#006DFF"/>
<path d="M93.8459 21.2444L53.9229 21.2443L108.014 84.3568L131.203 64.1807L93.8459 21.2444Z" fill="#0049AB"/>
<path d="M42.4229 20.8167L0.190735 20.8166L90.4349 128.107L114.642 107.671L42.4229 20.8167Z" fill="#006DFF"/>
</svg>
