<svg width="1046" height="377" viewBox="0 0 1046 377" fill="none" xmlns="http://www.w3.org/2000/svg">
<path d="M0 163.927H846.005L776.207 271.651L0 271.651V163.927Z" fill="#FF0000"/>
<rect y="0.5" width="573" height="196" fill="#C70000"/>
<path d="M572.378 0.5L707 0.5L572.379 196.75L572.378 0.5Z" fill="#C70000"/>
<path d="M790 0.5H875L742 196.5H654L790 0.5Z" fill="#C70000"/>
<rect x="671" y="0.5" width="125" height="32" fill="#C70000"/>
<path d="M354 31H1045.5L955 164H263L354 31Z" fill="#39343B"/>
<path d="M0 271.651H319V321.651H0V271.651Z" fill="#39343B"/>
<path d="M353 271.651L318.851 321.744V271.651H353Z" fill="#39343B"/>
<path d="M59.9589 321.651L-3.8147e-06 375.578V321.651L59.9589 321.651Z" fill="#FF0000"/>
</svg>
