<svg width="1046" height="377" viewBox="0 0 1046 377" fill="none" xmlns="http://www.w3.org/2000/svg">
<path d="M1045.27 164H199.27L273.929 271.723L1045.27 271.723V164Z" fill="#006DFF"/>
<rect width="573" height="196" transform="matrix(-1 0 0 1 1045.5 0.5)" fill="#0049AB"/>
<path d="M473.121 0.5L338.5 0.5L473.121 196.75L473.121 0.5Z" fill="#0049AB"/>
<path d="M255.5 0.5H170.5L303.5 196.5H391.5L255.5 0.5Z" fill="#0049AB"/>
<rect width="125" height="32" transform="matrix(-1 0 0 1 374.5 0.5)" fill="#0049AB"/>
<path d="M691.5 31H0L90.5 164H782.5L691.5 31Z" fill="#39343B"/>
<rect width="319" height="50" transform="matrix(-1 0 0 1 1045.5 271.77)" fill="#39343B"/>
<path d="M692.524 271.723L726.673 321.817V271.723H692.524Z" fill="#39343B"/>
<path d="M985.541 321.77L1045.5 375.698V321.77L985.541 321.77Z" fill="#006DFF"/>
</svg>
