<svg width="128" height="238" viewBox="0 0 128 238" fill="none" xmlns="http://www.w3.org/2000/svg">
<path d="M0.597656 166.559V56.5671H30.2505L24.5881 138.571L56.2049 56.5209H81.5494L109.966 0.466064L86.2353 58.5271L50.4599 142.898L5.26043 237.225L32.6066 166.559H0.597656Z" fill="white" stroke="white" stroke-width="0.1"/>
<path d="M82.1092 110.201C80.6019 115.064 80.8343 116.836 81.303 121.209C84.1125 127.837 89.8177 125.387 106.432 137.983C106.432 137.983 108.084 139.188 111.05 143.835C114.675 149.515 115.389 153.728 115.605 160.449C115.803 166.636 114.94 170.26 112.696 176.038C109.703 183.742 107.132 188.26 100.847 193.673C95.6455 198.151 91.9135 200.454 84.0347 202.074C76.5999 203.602 69.3047 203.369 61.9161 201.64C56.4893 200.37 53.5507 198.918 49.5375 195.08C44.7818 190.531 43.3812 186.818 42.4554 180.328C41.8182 175.861 42.8057 168.781 42.8057 168.781L68.2413 168.084C68.2413 168.084 67.7998 172.361 68.4305 174.982C69.1262 177.873 69.7213 179.881 72.128 181.652C75.2465 183.225 77.2428 183.224 80.8394 182.491C86.9316 180.396 88.25 174.932 88.768 172.436C90.5221 163.983 87.824 161.179 85.9244 158.856C83.824 156.287 82.0107 155.573 79.3067 154.091C75.1627 151.82 71.4698 149.928 68.5913 147.95C65.7127 145.971 58.8894 139.485 58.8894 139.485L79.8295 90.0302C82.5034 88.8776 85.2873 88.0762 88.1307 87.4383C93.9698 86.1283 100.616 86.3255 104.593 86.9869C104.593 86.9869 111.625 87.8371 115.606 90.9407C119.289 93.8123 119.867 95.0975 121.091 99.5835C121.951 102.736 122.102 108.513 122.102 108.513L122.385 118.815L98.1242 119.48L98.0316 116.103C97.8417 109.178 97.23 108.604 97.23 108.604C96.045 105.763 92.9982 103.396 88.5971 104.446C84.196 105.496 82.1092 110.201 82.1092 110.201Z" fill="white"/>
<path d="M98.0316 116.103C97.8417 109.178 97.23 108.604 97.23 108.604C96.045 105.763 92.9982 103.396 88.5971 104.446C84.196 105.496 82.1092 110.201 82.1092 110.201C80.6019 115.064 80.8343 116.836 81.3031 121.209C84.1125 127.837 89.8177 125.387 106.432 137.983C106.432 137.983 108.084 139.188 111.05 143.835C114.675 149.515 115.389 153.728 115.605 160.449C115.803 166.636 114.94 170.26 112.696 176.038C109.703 183.742 107.132 188.26 100.847 193.673C95.6455 198.151 91.9135 200.454 84.0347 202.074C76.5999 203.602 69.3047 203.369 61.9161 201.64C56.4893 200.37 53.5507 198.918 49.5375 195.08C44.7818 190.531 43.3812 186.818 42.4554 180.328C41.8182 175.861 42.8057 168.781 42.8057 168.781L68.2413 168.084C68.2413 168.084 67.7998 172.361 68.4305 174.982C69.1262 177.873 69.7213 179.881 72.128 181.652C75.2465 183.225 77.2428 183.224 80.8394 182.491C86.9316 180.396 88.25 174.932 88.768 172.436C90.5221 163.983 87.824 161.179 85.9244 158.856C83.824 156.287 82.0107 155.573 79.3067 154.091C75.1627 151.82 71.4698 149.928 68.5913 147.95C65.7127 145.971 58.8894 139.485 58.8894 139.485L79.8295 90.0302C82.5034 88.8776 85.2873 88.0762 88.1307 87.4383C93.9698 86.1283 100.616 86.3255 104.593 86.9869C104.593 86.9869 111.625 87.8371 115.606 90.9407C119.289 93.8123 119.867 95.0975 121.091 99.5835C121.951 102.736 122.102 108.513 122.102 108.513L122.385 118.815L98.1242 119.48M98.0316 116.103C98.2214 123.027 98.1242 119.48 98.1242 119.48M98.0316 116.103L98.1242 119.48" stroke="white"/>
</svg>
